name Run_200 02_newCOP3_v24.mot
datacolumns 19
datarows 86
range 0.17 0.255
DataType=double
version=3
OpenSimVersion=4.3-2021-08-27-4bc7ad9
endheader
time	R_ground_force_vx	R_ground_force_vy	R_ground_force_vz	R_ground_force_px	R_ground_force_py	R_ground_force_pz	L_ground_force_vx	L_ground_force_vy	L_ground_force_vz	L_ground_force_px	L_ground_force_py	L_ground_force_pz	R_ground_torque_x	R_ground_torque_y	R_ground_torque_z	L_ground_torque_x	L_ground_torque_y	L_ground_torque_z
0.17	62.037491	927.5428470000001	-22.745283	0.5728220000000001	0	-0.270261	0	0	0	0	0	0	0	-1.268858	0	0	0	0
0.171	63.344383	920.962585	-21.239534	0.572263	0	-0.270085	0	0	0	0	0	0	0	-1.530382	0	0	0	0
0.172	64.68174	914.124878	-19.706808	0.571677	0	-0.269912	0	0	0	0	0	0	0	-1.792576	0	0	0	0
0.173	66.038239	907.04895	-18.163067	0.571064	0	-0.269743	0	0	0	0	0	0	0	-2.054042	0	0	0	0
0.174	67.40366400000001	899.748779	-16.622952	0.570421	0	-0.269578	0	0	0	0	0	0	0	-2.313386	0	0	0	0
0.175	68.768715	892.235413	-15.099807	0.56975	0	-0.269417	0	0	0	0	0	0	0	-2.569231	0	0	0	0
0.176	70.124985	884.51825	-13.605648	0.569048	0	-0.269261	0	0	0	0	0	0	0	-2.82023	0	0	0	0
0.177	71.464905	876.606079	-12.151069	0.568315	0	-0.269111	0	0	0	0	0	0	0	-3.065081	0	0	0	0
0.178	72.78177599999999	868.507568	-10.745154	0.567551	0	-0.268967	0	0	0	0	0	0	0	-3.302541	0	0	0	0
0.179	74.06974	860.231323	-9.395422999999999	0.566754	0	-0.26883	0	0	0	0	0	0	0	-3.531434	0	0	0	0
0.18	75.32373800000001	851.7863160000001	-8.107799999999999	0.565925	0	-0.268699	0	0	0	0	0	0	0	-3.750668	0	0	0	0
0.181	76.53949	843.181641	-6.886632	0.565063	0	-0.268576	0	0	0	0	0	0	0	-3.959238	0	0	0	0
0.182	77.71341700000001	834.4267579999999	-5.734735	0.564168	0	-0.268461	0	0	0	0	0	0	0	-4.156238	0	0	0	0
0.183	78.84256000000001	825.531433	-4.653485	0.563239	0	-0.268353	0	0	0	0	0	0	0	-4.340863	0	0	0	0
0.184	79.924515	816.505432	-3.642944	0.562276	0	-0.268253	0	0	0	0	0	0	0	-4.512421	0	0	0	0
0.185	80.95729799999999	807.3589480000001	-2.701994	0.56128	0	-0.268162	0	0	0	0	0	0	0	-4.670329	0	0	0	0
0.186	81.939301	798.102173	-1.828508	0.5602510000000001	0	-0.268079	0	0	0	0	0	0	0	-4.814116	0	0	0	0
0.187	82.869179	788.745239	-1.019517	0.559188	0	-0.268004	0	0	0	0	0	0	0	-4.943429	0	0	0	0
0.188	83.745789	779.298523	-0.271389	0.558093	0	-0.267937	0	0	0	0	0	0	0	-5.058026	0	0	0	0
0.189	84.56811500000001	769.772095	0.419994	0.556965	0	-0.267879	0	0	0	0	0	0	0	-5.157775	0	0	0	0
0.19	85.335228	760.176025	1.05907	0.555805	0	-0.267829	0	0	0	0	0	0	0	-5.242652	0	0	0	0
0.191	86.046257	750.520203	1.650433	0.554615	0	-0.267788	0	0	0	0	0	0	0	-5.312737	0	0	0	0
0.192	86.70034	740.814148	2.198688	0.5533940000000001	0	-0.267754	0	0	0	0	0	0	0	-5.368203	0	0	0	0
0.193	87.296661	731.0672	2.708317	0.5521430000000001	0	-0.267727	0	0	0	0	0	0	0	-5.409319	0	0	0	0
0.194	87.83442700000001	721.288086	3.183564	0.550865	0	-0.267708	0	0	0	0	0	0	0	-5.436436	0	0	0	0
0.195	88.312889	711.485229	3.62833	0.549558	0	-0.267696	0	0	0	0	0	0	0	-5.449979	0	0	0	0
0.196	88.73142199999999	701.666443	4.046095	0.548226	0	-0.267691	0	0	0	0	0	0	0	-5.450447	0	0	0	0
0.197	89.089478	691.83905	4.439846	0.546867	0	-0.267692	0	0	0	0	0	0	0	-5.438394	0	0	0	0
0.198	89.38671100000001	682.009644	4.812027	0.545485	0	-0.267699	0	0	0	0	0	0	0	-5.414429	0	0	0	0
0.199	89.622955	672.1843260000001	5.164515	0.54408	0	-0.267711	0	0	0	0	0	0	0	-5.379208	0	0	0	0
0.2	89.79830200000001	662.368469	5.498595	0.542654	0	-0.267728	0	0	0	0	0	0	0	-5.333418	0	0	0	0
0.201	89.913116	652.566895	5.814966	0.541207	0	-0.267749	0	0	0	0	0	0	0	-5.277779	0	0	0	0
0.202	89.968056	642.783875	6.113764	0.53974	0	-0.267774	0	0	0	0	0	0	0	-5.213029	0	0	0	0
0.203	89.964088	633.023132	6.394593	0.538256	0	-0.267802	0	0	0	0	0	0	0	-5.139921	0	0	0	0
0.204	89.90250399999999	623.287903	6.656577	0.536755	0	-0.267833	0	0	0	0	0	0	0	-5.059214	0	0	0	0
0.205	89.78486599999999	613.580994	6.898425	0.535239	0	-0.267866	0	0	0	0	0	0	0	-4.97167	0	0	0	0
0.206	89.61303700000001	603.9047849999999	7.118508	0.533708	0	-0.267901	0	0	0	0	0	0	0	-4.878043	0	0	0	0
0.207	89.389107	594.261475	7.314944	0.5321630000000001	0	-0.267936	0	0	0	0	0	0	0	-4.77908	0	0	0	0
0.208	89.115364	584.652832	7.485689	0.5306070000000001	0	-0.267971	0	0	0	0	0	0	0	-4.675512	0	0	0	0
0.209	88.79424299999999	575.080383	7.628629	0.529039	0	-0.268006	0	0	0	0	0	0	0	-4.568052	0	0	0	0
0.21	88.42826100000001	565.545471	7.741679	0.527461	0	-0.26804	0	0	0	0	0	0	0	-4.45739	0	0	0	0
0.211	88.019958	556.0491940000001	7.822869	0.525873	0	-0.268072	0	0	0	0	0	0	0	-4.344194	0	0	0	0
0.212	87.571854	546.5924680000001	7.870427	0.524276	0	-0.268102	0	0	0	0	0	0	0	-4.229102	0	0	0	0
0.213	87.086388	537.1760860000001	7.882856	0.522671	0	-0.268129	0	0	0	0	0	0	0	-4.112725	0	0	0	0
0.214	86.565865	527.80072	7.859001	0.521059	0	-0.268152	0	0	0	0	0	0	0	-3.995644	0	0	0	0
0.215	86.012413	518.466858	7.798096	0.51944	0	-0.268171	0	0	0	0	0	0	0	-3.878407	0	0	0	0
0.216	85.427994	509.175171	7.69981	0.517814	0	-0.268184	0	0	0	0	0	0	0	-3.761533	0	0	0	0
0.217	84.814339	499.926056	7.564274	0.5161829999999999	0	-0.268192	0	0	0	0	0	0	0	-3.645508	0	0	0	0
0.218	84.172989	490.720215	7.392102	0.5145459999999999	0	-0.268194	0	0	0	0	0	0	0	-3.530784	0	0	0	0
0.219	83.50528	481.558411	7.184393	0.512904	0	-0.268188	0	0	0	0	0	0	0	-3.417785	0	0	0	0
0.22	82.812386	472.441589	6.942733	0.511256	0	-0.268175	0	0	0	0	0	0	0	-3.306901	0	0	0	0
0.221	82.095367	463.371063	6.669174	0.5096039999999999	0	-0.268153	0	0	0	0	0	0	0	-3.198495	0	0	0	0
0.222	81.355186	454.34848	6.366222	0.507948	0	-0.268122	0	0	0	0	0	0	0	-3.092896	0	0	0	0
0.223	80.59279600000001	445.375824	6.036801	0.506287	0	-0.268082	0	0	0	0	0	0	0	-2.990408	0	0	0	0
0.224	79.80914300000001	436.455627	5.684216	0.504621	0	-0.26803	0	0	0	0	0	0	0	-2.891305	0	0	0	0
0.225	79.005264	427.590851	5.31211	0.502952	0	-0.267968	0	0	0	0	0	0	0	-2.795835	0	0	0	0
0.226	78.182289	418.784851	4.924417	0.501279	0	-0.267893	0	0	0	0	0	0	0	-2.70422	0	0	0	0
0.227	77.341492	410.041565	4.525299	0.499602	0	-0.267806	0	0	0	0	0	0	0	-2.616657	0	0	0	0
0.228	76.48427599999999	401.365173	4.119083	0.497922	0	-0.267705	0	0	0	0	0	0	0	-2.533318	0	0	0	0
0.229	75.612213	392.760284	3.7102	0.496238	0	-0.267591	0	0	0	0	0	0	0	-2.454353	0	0	0	0
0.23	74.72700500000001	384.231628	3.303107	0.494552	0	-0.267461	0	0	0	0	0	0	0	-2.379891	0	0	0	0
0.231	73.83046	375.784149	2.902213	0.492862	0	-0.267316	0	0	0	0	0	0	0	-2.310037	0	0	0	0
0.232	72.924469	367.422699	2.511804	0.49117	0	-0.267154	0	0	0	0	0	0	0	-2.244877	0	0	0	0
0.233	72.010948	359.152008	2.13597	0.489476	0	-0.266976	0	0	0	0	0	0	0	-2.184479	0	0	0	0
0.234	71.091797	350.976654	1.778526	0.487781	0	-0.26678	0	0	0	0	0	0	0	-2.128891	0	0	0	0
0.235	70.168869	342.900696	1.442948	0.486084	0	-0.266566	0	0	0	0	0	0	0	-2.078142	0	0	0	0
0.236	69.243927	334.927887	1.132307	0.484386	0	-0.266334	0	0	0	0	0	0	0	-2.032247	0	0	0	0
0.237	68.31860399999999	327.06131	0.849217	0.482688	0	-0.266082	0	0	0	0	0	0	0	-1.991202	0	0	0	0
0.238	67.394409	319.303589	0.595785	0.48099	0	-0.26581	0	0	0	0	0	0	0	-1.954992	0	0	0	0
0.239	66.472679	311.656616	0.37358	0.479293	0	-0.265517	0	0	0	0	0	0	0	-1.923585	0	0	0	0
0.24	65.554619	304.121735	0.183605	0.477598	0	-0.265204	0	0	0	0	0	0	0	-1.896935	0	0	0	0
0.241	64.64128100000001	296.699615	0.026287	0.475906	0	-0.26487	0	0	0	0	0	0	0	-1.874988	0	0	0	0
0.242	63.733593	289.390411	-0.098527	0.474217	0	-0.264515	0	0	0	0	0	0	0	-1.857676	0	0	0	0
0.243	62.832348	282.193756	-0.191557	0.472532	0	-0.264138	0	0	0	0	0	0	0	-1.844922	0	0	0	0
0.244	61.938229	275.108795	-0.254071	0.470853	0	-0.263739	0	0	0	0	0	0	0	-1.836639	0	0	0	0
0.245	61.051807	268.134338	-0.287852	0.469182	0	-0.263319	0	0	0	0	0	0	0	-1.832734	0	0	0	0
0.246	60.173546	261.268921	-0.295161	0.467519	0	-0.262878	0	0	0	0	0	0	0	-1.833104	0	0	0	0
0.247	59.303791	254.510803	-0.278687	0.465866	0	-0.262414	0	0	0	0	0	0	0	-1.837644	0	0	0	0
0.248	58.442753	247.858185	-0.24149	0.464226	0	-0.26193	0	0	0	0	0	0	0	-1.84624	0	0	0	0
0.249	57.590496	241.309158	-0.186943	0.462601	0	-0.261426	0	0	0	0	0	0	0	-1.858776	0	0	0	0
0.25	56.746922	234.861862	-0.118662	0.460993	0	-0.260902	0	0	0	0	0	0	0	-1.875131	0	0	0	0
0.251	55.911743	228.514526	-0.040433	0.459406	0	-0.260358	0	0	0	0	0	0	0	-1.895179	0	0	0	0
0.252	55.084484	222.265518	0.04386	0.457844	0	-0.259796	0	0	0	0	0	0	0	-1.918794	0	0	0	0
0.253	54.264462	216.113388	0.130316	0.456311	0	-0.259218	0	0	0	0	0	0	0	-1.945844	0	0	0	0
0.254	53.450783	210.056976	0.215098	0.454811	0	-0.258624	0	0	0	0	0	0	0	-1.976196	0	0	0	0
0.255	52.642376	204.095413	0.294511	0.45335	0	-0.258015	0	0	0	0	0	0	0	-2.009711	0	0	0	0
